<svg width="207" height="25" viewBox="0 0 207 25" fill="none" xmlns="http://www.w3.org/2000/svg">
<g clip-path="url(#clip0_1_1010)">
<path d="M55.5283 19.0688V8.99368L55.6055 6.23025L54.5253 9.06955L50.0799 19.389L45.6075 8.99368L44.5029 6.23025L44.58 8.99368V19.0688H41.8423V0.640381H44.6045L49.5527 12.1429L50.0542 13.4918L50.5814 12.1429L55.5039 0.640381H58.2673V19.0688H55.5283Z" fill="white"/>
<path d="M68.0956 19.3891C67.153 19.3891 66.303 19.2296 65.5443 18.9133C64.7856 18.5969 64.1414 18.1353 63.6103 17.5322C63.0792 16.9278 62.669 16.1923 62.3835 15.3217C62.0955 14.4524 61.9527 13.4649 61.9527 12.359C61.9527 11.2544 62.0955 10.2655 62.3835 9.39108C62.6703 8.51666 63.0792 7.77854 63.6103 7.17416C64.1414 6.56978 64.7856 6.10814 65.5443 5.78666C66.3017 5.46518 67.153 5.30444 68.0956 5.30444C69.0291 5.30444 69.8778 5.46518 70.6404 5.78666C71.4029 6.10814 72.0497 6.57107 72.5808 7.17416C73.1119 7.77854 73.5234 8.51666 73.814 9.39108C74.1059 10.2655 74.2512 11.2544 74.2512 12.359C74.2512 13.4649 74.1059 14.4524 73.814 15.3217C73.5221 16.1923 73.1119 16.9278 72.5808 17.5322C72.0497 18.1366 71.4029 18.5969 70.6404 18.9133C69.8778 19.2296 69.0304 19.3891 68.0956 19.3891ZM68.0956 16.8057C68.6176 16.8057 69.0909 16.7041 69.5152 16.4983C69.9396 16.2926 70.2996 15.9994 70.5954 15.6175C70.8911 15.2368 71.1175 14.7726 71.2756 14.2235C71.4338 13.6745 71.5135 13.0546 71.5135 12.3603C71.5135 11.6659 71.4338 11.0435 71.2756 10.4905C71.1175 9.93759 70.8899 9.46823 70.5954 9.08374C70.2996 8.69797 69.9396 8.40221 69.5152 8.19646C69.0909 7.99072 68.6176 7.88784 68.0956 7.88784C67.5735 7.88784 67.1016 7.99072 66.6823 8.19646C66.2631 8.40093 65.9044 8.69797 65.6099 9.08374C65.3141 9.46823 65.0878 9.93759 64.9284 10.4905C64.7702 11.0435 64.6905 11.6659 64.6905 12.3603C64.6905 13.0546 64.7689 13.6757 64.9284 14.2235C65.0865 14.7726 65.3141 15.2368 65.6099 15.6175C65.9056 15.9994 66.2631 16.2926 66.6823 16.4983C67.1028 16.7041 67.5735 16.8057 68.0956 16.8057Z" fill="white"/>
<path d="M83.2346 19.3891C82.8488 19.3891 82.5003 19.3531 82.1879 19.2798C81.8754 19.2065 81.5899 19.1074 81.3327 18.984C81.0756 18.8593 80.8441 18.7114 80.6383 18.5404C80.4326 18.368 80.2397 18.1854 80.0597 17.9874V19.0676H77.3233V1.33354L80.0597 0.0617676V6.64179C80.403 6.2573 80.8325 5.93711 81.3507 5.68507C81.869 5.43303 82.4965 5.30573 83.2333 5.30573C84.0563 5.30573 84.8098 5.46518 85.4952 5.78152C86.1806 6.09914 86.7696 6.55949 87.2621 7.16259C87.7546 7.76697 88.1378 8.5038 88.413 9.37436C88.6869 10.2436 88.8245 11.2299 88.8245 12.3358C88.8245 13.4751 88.6959 14.4846 88.4387 15.3616C88.1815 16.2399 87.8112 16.978 87.3277 17.5721C86.8442 18.1687 86.2565 18.6188 85.5673 18.9287C84.8767 19.2347 84.1 19.3891 83.2346 19.3891ZM82.9003 16.8057C83.4223 16.8057 83.8814 16.7015 84.2749 16.4906C84.6697 16.281 85.0015 15.9827 85.2715 15.5982C85.5415 15.2124 85.7447 14.7431 85.8823 14.1914C86.0199 13.6384 86.088 13.0199 86.088 12.3345C86.088 10.8866 85.8154 9.78328 85.2715 9.02587C84.7276 8.26719 83.9367 7.88784 82.9003 7.88784C82.5492 7.88784 82.2226 7.93542 81.923 8.02929C81.6234 8.12445 81.3507 8.24404 81.1064 8.38935C80.8621 8.53466 80.6525 8.69668 80.4763 8.87799C80.3002 9.05802 80.1613 9.23291 80.0584 9.40393V15.2767C80.358 15.7654 80.7541 16.1421 81.2479 16.4083C81.7417 16.6732 82.292 16.8057 82.9003 16.8057Z" fill="white"/>
<path d="M93.3573 3.51821C93.1259 3.51821 92.9098 3.47449 92.7079 3.38962C92.5073 3.30475 92.3312 3.18645 92.1807 3.03599C92.0316 2.88683 91.9132 2.71066 91.8271 2.51006C91.7409 2.30817 91.6985 2.09213 91.6985 1.86067C91.6985 1.6292 91.7409 1.41317 91.8271 1.21128C91.912 1.00939 92.0303 0.834509 92.1807 0.685343C92.3312 0.536177 92.5061 0.416587 92.7079 0.331716C92.9086 0.246846 93.1259 0.203125 93.3573 0.203125C93.5888 0.203125 93.8048 0.246846 94.0067 0.331716C94.2086 0.416587 94.3835 0.536177 94.5339 0.685343C94.6844 0.834509 94.8014 1.01068 94.8876 1.21128C94.9737 1.41317 95.0162 1.6292 95.0162 1.86067C95.0162 2.09213 94.9737 2.30817 94.8876 2.51006C94.8027 2.71194 94.6844 2.88683 94.5339 3.03599C94.3848 3.18645 94.2086 3.30475 94.0067 3.38962C93.8048 3.47578 93.5888 3.51821 93.3573 3.51821ZM91.9955 19.0688V5.61296H94.7333V19.0675H91.9955V19.0688Z" fill="white"/>
<path d="M98.7222 19.0689V1.35926L101.46 0.0617676V19.0689H98.7222Z" fill="white"/>
<path d="M110.995 19.3891C110.061 19.3891 109.218 19.2283 108.464 18.9068C107.709 18.5867 107.068 18.1237 106.537 17.5193C106.006 16.915 105.597 16.1768 105.31 15.3024C105.023 14.4293 104.879 13.4404 104.879 12.3345C104.879 11.2286 105.024 10.2424 105.316 9.37308C105.607 8.50251 106.021 7.76568 106.556 7.1613C107.091 6.55692 107.734 6.09785 108.484 5.78023C109.233 5.4639 110.07 5.30444 110.996 5.30444C111.793 5.30444 112.541 5.43175 113.239 5.68379C113.937 5.93583 114.549 6.32289 115.076 6.83983C115.602 7.35805 116.018 8.01129 116.322 8.79956C116.627 9.58782 116.779 10.5163 116.779 11.5887C116.779 11.8793 116.773 12.1879 116.76 12.5146C116.747 12.8399 116.719 13.1228 116.676 13.362H107.614C107.623 13.9188 107.724 14.4177 107.916 14.8588C108.108 15.2999 108.364 15.6766 108.682 15.9904C108.998 16.3029 109.358 16.542 109.76 16.7105C110.163 16.8777 110.583 16.9613 111.021 16.9613C111.577 16.9613 112.093 16.8455 112.569 16.6141C113.045 16.3826 113.457 16.0444 113.809 15.5982L115.595 17.4358C115.106 18.0196 114.481 18.4902 113.718 18.849C112.956 19.2103 112.048 19.3891 110.995 19.3891ZM110.995 7.72067C110.567 7.72067 110.155 7.7824 109.762 7.90713C109.367 8.03187 109.018 8.22733 108.714 8.49865C108.41 8.7687 108.159 9.12232 107.961 9.55825C107.765 9.99546 107.649 10.5265 107.614 11.1515H114.04C114.023 10.5265 113.924 9.99417 113.744 9.55825C113.564 9.12232 113.329 8.7687 113.037 8.49865C112.745 8.22861 112.422 8.03187 112.066 7.90713C111.712 7.78369 111.354 7.72067 110.995 7.72067Z" fill="white"/>
<path d="M126.668 19.0688V0.640381H134.429C135.561 0.640381 136.507 0.794691 137.269 1.10331C138.031 1.41193 138.643 1.82085 139.106 2.33136C139.569 2.84058 139.896 3.42181 140.09 4.0712C140.283 4.72316 140.379 5.39569 140.379 6.09009C140.379 6.62117 140.302 7.15611 140.148 7.69619C139.994 8.23499 139.756 8.74292 139.434 9.21871C139.114 9.6945 138.7 10.1137 138.195 10.4789C137.689 10.8428 137.086 11.1193 136.383 11.3083L140.174 19.0701H137.039L133.415 11.5398H129.405V19.0701H126.668V19.0688ZM134.494 8.90367C135.067 8.90367 135.547 8.82522 135.933 8.66577C136.318 8.5076 136.631 8.29543 136.87 8.02924C137.111 7.76435 137.282 7.46473 137.384 7.13039C137.487 6.79605 137.539 6.44886 137.539 6.0888C137.539 5.77118 137.494 5.44713 137.404 5.1115C137.314 4.77845 137.153 4.47369 136.923 4.19979C136.691 3.92589 136.379 3.70343 135.984 3.53112C135.589 3.3588 135.093 3.27393 134.494 3.27393H129.404V8.90238H134.494V8.90367Z" fill="white"/>
<path d="M149.371 19.3891C148.437 19.3891 147.593 19.2283 146.84 18.9068C146.085 18.5867 145.443 18.1237 144.912 17.5193C144.381 16.915 143.972 16.1768 143.685 15.3024C143.399 14.4293 143.255 13.4404 143.255 12.3345C143.255 11.2286 143.4 10.2424 143.692 9.37308C143.983 8.50251 144.397 7.76568 144.932 7.1613C145.466 6.55692 146.109 6.09785 146.859 5.78023C147.609 5.4639 148.446 5.30444 149.372 5.30444C150.169 5.30444 150.916 5.43175 151.614 5.68379C152.313 5.93583 152.925 6.32289 153.452 6.83983C153.978 7.35805 154.393 8.01129 154.698 8.79956C155.003 9.58782 155.155 10.5163 155.155 11.5887C155.155 11.8793 155.148 12.1879 155.135 12.5146C155.122 12.8399 155.094 13.1228 155.052 13.362H145.991C146 13.9188 146.1 14.4177 146.293 14.8588C146.485 15.2999 146.741 15.6766 147.058 15.9904C147.375 16.3029 147.735 16.542 148.137 16.7105C148.54 16.8777 148.96 16.9613 149.398 16.9613C149.954 16.9613 150.47 16.8455 150.946 16.6141C151.422 16.3826 151.834 16.0444 152.185 15.5982L153.972 17.4358C153.483 18.0196 152.858 18.4902 152.095 18.849C151.333 19.2103 150.425 19.3891 149.371 19.3891ZM149.371 7.72067C148.942 7.72067 148.531 7.7824 148.137 7.90713C147.743 8.03187 147.394 8.22733 147.089 8.49865C146.786 8.7687 146.535 9.12232 146.337 9.55825C146.14 9.99546 146.025 10.5265 145.99 11.1515H152.416C152.399 10.5265 152.3 9.99417 152.121 9.55825C151.941 9.12232 151.706 8.7687 151.414 8.49865C151.122 8.22861 150.799 8.03187 150.443 7.90713C150.087 7.7824 149.731 7.72067 149.371 7.72067Z" fill="white"/>
<path d="M168.439 19.0689H165.817V17.9128C165.646 18.0928 165.441 18.2703 165.2 18.4452C164.96 18.6226 164.688 18.7808 164.385 18.921C164.08 19.0624 163.741 19.1756 163.362 19.2617C162.986 19.3466 162.576 19.3903 162.129 19.3903C161.444 19.3903 160.81 19.2965 160.227 19.1074C159.645 18.9197 159.138 18.6342 158.711 18.2523C158.283 17.8717 157.946 17.3997 157.703 16.8391C157.459 16.2771 157.337 15.6239 157.337 14.8794C157.337 14.1078 157.482 13.4417 157.774 12.881C158.065 12.3191 158.45 11.8575 158.93 11.4935C159.41 11.1296 159.96 10.8622 160.581 10.6911C161.202 10.5188 161.843 10.4339 162.502 10.4339C163.119 10.4339 163.712 10.5008 164.282 10.6333C164.852 10.7657 165.363 10.965 165.817 11.2299V10.4854C165.817 9.98002 165.759 9.55181 165.644 9.20075C165.528 8.84841 165.353 8.56423 165.118 8.34562C164.882 8.1283 164.584 7.97014 164.225 7.87112C163.865 7.7721 163.437 7.72324 162.941 7.72324C162.101 7.72324 161.374 7.83511 160.762 8.05629C160.149 8.27875 159.595 8.57451 159.098 8.94357L158.288 6.69451C158.562 6.50676 158.875 6.32802 159.227 6.16085C159.578 5.99368 159.964 5.84581 160.383 5.71721C160.802 5.58991 161.256 5.48961 161.746 5.41631C162.235 5.34301 162.757 5.30701 163.314 5.30701C163.69 5.30701 164.08 5.32887 164.483 5.3713C164.885 5.41502 165.277 5.49861 165.658 5.62206C166.04 5.74679 166.4 5.92296 166.738 6.15442C167.076 6.38589 167.372 6.68808 167.624 7.06099C167.876 7.43391 168.075 7.88912 168.222 8.42921C168.367 8.96929 168.441 9.61096 168.441 10.3568V19.0689H168.439ZM162.631 16.9612C163.325 16.9612 163.94 16.8198 164.475 16.5369C165.011 16.254 165.459 15.9145 165.817 15.5223V13.4661C165.441 13.2694 164.999 13.1112 164.494 12.9903C163.989 12.8708 163.471 12.8103 162.939 12.8103C162.528 12.8103 162.142 12.8489 161.783 12.926C161.423 13.0032 161.11 13.1254 160.838 13.2925C160.568 13.4597 160.357 13.6732 160.202 13.9355C160.047 14.1952 159.972 14.5116 159.972 14.8794C159.972 15.5223 160.197 16.029 160.645 16.4019C161.094 16.7748 161.758 16.9612 162.631 16.9612Z" fill="white"/>
<path d="M171.943 19.0689V1.35926L174.68 0.0617676V19.0689H171.943Z" fill="white"/>
<path d="M180.263 3.51821C180.032 3.51821 179.814 3.47449 179.614 3.38962C179.412 3.30475 179.236 3.18645 179.087 3.03599C178.937 2.88683 178.819 2.71066 178.734 2.51006C178.648 2.30817 178.606 2.09213 178.606 1.86067C178.606 1.6292 178.648 1.41317 178.734 1.21128C178.819 1.00939 178.937 0.834509 179.087 0.685343C179.236 0.536177 179.412 0.416587 179.614 0.331716C179.814 0.246846 180.032 0.203125 180.263 0.203125C180.495 0.203125 180.711 0.246846 180.913 0.331716C181.113 0.416587 181.289 0.536177 181.439 0.685343C181.588 0.834509 181.706 1.01068 181.792 1.21128C181.877 1.41317 181.921 1.6292 181.921 1.86067C181.921 2.09213 181.877 2.30817 181.792 2.51006C181.706 2.71194 181.588 2.88683 181.439 3.03599C181.289 3.18645 181.113 3.30475 180.913 3.38962C180.709 3.47578 180.493 3.51821 180.263 3.51821ZM178.9 19.0688V5.61296H181.637V19.0675H178.9V19.0688Z" fill="white"/>
<path d="M189.139 19.389C188.608 19.389 188.151 19.3106 187.77 19.1511C187.39 18.9929 187.076 18.7679 186.832 18.476C186.587 18.1854 186.41 17.8318 186.298 17.4164C186.186 17.0011 186.131 16.5407 186.131 16.0353V7.99066H184.05V5.613H186.131V1.38492L188.869 0.0604248V5.613H192.055V7.99066H188.869V15.3281C188.869 15.5505 188.888 15.7563 188.926 15.9453C188.965 16.1344 189.033 16.2964 189.131 16.434C189.23 16.5716 189.365 16.6757 189.536 16.749C189.708 16.8223 189.927 16.8583 190.192 16.8583C190.843 16.8583 191.507 16.6487 192.184 16.2295L191.849 18.7743C191.473 18.9634 191.061 19.1125 190.616 19.2244C190.171 19.3337 189.68 19.389 189.139 19.389Z" fill="white"/>
<path d="M199.893 24.17H197.104L199.173 18.8373L194.149 5.61426H196.861L200.176 14.4163C200.27 14.6645 200.343 14.8703 200.394 15.0336C200.446 15.1956 200.497 15.3846 200.549 15.5994C200.6 15.3846 200.651 15.1956 200.703 15.0336C200.754 14.8716 200.828 14.6658 200.921 14.4163L204.264 5.61426H207L199.893 24.17Z" fill="white"/>
<path opacity="0.6" fill-rule="evenodd" clip-rule="evenodd" d="M20.3419 0.00646973C22.7466 0.00646973 24.6947 1.95591 24.6947 4.35929V15.6766C24.6947 18.0813 22.7453 20.0294 20.3419 20.0294C17.9372 20.0294 15.9891 18.08 15.9891 15.6766V4.35929C15.9891 1.95591 17.9385 0.00646973 20.3419 0.00646973Z" fill="white"/>
<path opacity="0.6" fill-rule="evenodd" clip-rule="evenodd" d="M23.4281 1.27434C21.7281 -0.424351 18.9724 -0.424351 17.2711 1.27434L12.3512 6.19553L7.4313 1.27434C7.39786 1.24091 7.36057 1.21519 7.32457 1.1869C6.5453 0.455213 5.505 0 4.35282 0C1.94816 0 0 1.94816 0 4.35282V15.6714C0 18.0748 1.94816 20.0243 4.35282 20.0243C6.75748 20.0243 8.70564 18.0735 8.70564 15.6714V14.8626L9.22643 15.3834C9.23929 15.4001 9.25215 15.4168 9.26758 15.4323C10.1189 16.2848 11.235 16.7092 12.3512 16.7079C13.4661 16.7092 14.5823 16.2848 15.4348 15.4323C15.4503 15.4168 15.4631 15.4001 15.476 15.3834L23.4294 7.43001C25.128 5.73132 25.128 2.97432 23.4281 1.27434Z" fill="white"/>
</g>
<defs>
<clipPath id="clip0_1_1010">
<rect width="207" height="24.1699" fill="white"/>
</clipPath>
</defs>
</svg>
