<svg width="207" height="26" viewBox="0 0 207 26" fill="none" xmlns="http://www.w3.org/2000/svg">
<g clip-path="url(#clip0_1_1040)">
<path d="M55.5293 20.0276V9.95969L55.6064 7.19824L54.5263 10.0355L50.0809 20.3476L45.6085 9.95969L44.5039 7.19824L44.5811 9.95969V20.0276H41.8434V1.61108H44.6068L49.555 13.1054L50.0565 14.4533L50.5837 13.1054L55.5061 1.61108H58.2696V20.0263H55.5293V20.0276Z" fill="#F53103"/>
<path d="M68.0977 20.3475C67.1552 20.3475 66.3052 20.1882 65.5465 19.872C64.7878 19.5559 64.1436 19.0946 63.6125 18.492C63.0814 17.888 62.6712 17.153 62.3857 16.2831C62.0977 15.4144 61.955 14.4275 61.955 13.3224C61.955 12.2186 62.0977 11.2305 62.3857 10.3567C62.6725 9.48286 63.0814 8.74528 63.6125 8.14133C64.1436 7.53738 64.7878 7.07607 65.5465 6.75482C66.3039 6.43357 67.1552 6.27295 68.0977 6.27295C69.0313 6.27295 69.88 6.43357 70.6425 6.75482C71.4051 7.07607 72.0519 7.53867 72.583 8.14133C73.1141 8.74528 73.5255 9.48286 73.8162 10.3567C74.1081 11.2305 74.2534 12.2186 74.2534 13.3224C74.2534 14.4275 74.1081 15.4144 73.8162 16.2831C73.5243 17.153 73.1141 17.888 72.583 18.492C72.0519 19.0959 71.4051 19.5559 70.6425 19.872C69.8787 20.1882 69.0313 20.3475 68.0977 20.3475ZM68.0977 17.7659C68.6198 17.7659 69.093 17.6644 69.5174 17.4588C69.9417 17.2532 70.3018 16.9602 70.5975 16.5786C70.8933 16.1982 71.1196 15.7344 71.2778 15.1857C71.4359 14.637 71.5157 14.0176 71.5157 13.3237C71.5157 12.6298 71.4359 12.0079 71.2778 11.4553C71.1196 10.9028 70.892 10.4338 70.5975 10.0495C70.3018 9.66405 69.9417 9.3685 69.5174 9.1629C69.093 8.9573 68.6198 8.8545 68.0977 8.8545C67.5757 8.8545 67.1037 8.9573 66.6845 9.1629C66.2653 9.36722 65.9065 9.66405 65.6121 10.0495C65.3163 10.4338 65.09 10.9028 64.9305 11.4553C64.7724 12.0079 64.6927 12.6298 64.6927 13.3237C64.6927 14.0176 64.7711 14.6383 64.9305 15.1857C65.0887 15.7344 65.3163 16.1982 65.6121 16.5786C65.9078 16.9602 66.2653 17.2532 66.6845 17.4588C67.1037 17.6644 67.5744 17.7659 68.0977 17.7659Z" fill="#F53103"/>
<path d="M83.2354 20.3476C82.8496 20.3476 82.5012 20.3117 82.1887 20.2384C81.8762 20.1652 81.5907 20.0662 81.3336 19.9429C81.0764 19.8182 80.8449 19.6705 80.6392 19.4995C80.4334 19.3274 80.2405 19.1449 80.0605 18.947V20.0264H77.3241V2.30504L80.0605 1.03418V7.6095C80.4026 7.22528 80.8333 6.90532 81.3516 6.65346C81.8698 6.4016 82.4973 6.27439 83.2341 6.27439C84.0571 6.27439 84.8106 6.43373 85.496 6.74983C86.1814 7.06723 86.7704 7.52726 87.2629 8.12992C87.7554 8.73386 88.1386 9.47017 88.4137 10.3401C88.6876 11.2088 88.8252 12.1944 88.8252 13.2994C88.8252 14.438 88.6967 15.4467 88.4395 16.323C88.1823 17.2007 87.8119 17.9383 87.3284 18.5319C86.8449 19.1282 86.2573 19.5779 85.568 19.8876C84.8788 20.1934 84.1008 20.3476 83.2354 20.3476ZM82.9024 17.7661C83.4244 17.7661 83.8835 17.662 84.277 17.4513C84.6718 17.2418 85.0035 16.9437 85.2736 16.5595C85.5436 16.174 85.7468 15.705 85.8844 15.1537C86.022 14.6011 86.0901 13.9831 86.0901 13.2982C86.0901 11.8513 85.8175 10.7487 85.2736 9.99187C84.7296 9.23373 83.9388 8.85465 82.9024 8.85465C82.5513 8.85465 82.2247 8.9022 81.9251 8.996C81.6254 9.09109 81.3528 9.2106 81.1085 9.3558C80.8642 9.50101 80.6546 9.66292 80.4784 9.8441C80.3023 10.024 80.1634 10.1988 80.0605 10.3697V16.2382C80.3601 16.7265 80.7562 17.103 81.25 17.369C81.7438 17.6337 82.2941 17.7661 82.9024 17.7661Z" fill="#F53103"/>
<path d="M93.3581 4.48825C93.1266 4.48825 92.9106 4.44456 92.7087 4.35975C92.5081 4.27494 92.3319 4.15672 92.1815 4.00638C92.0323 3.85732 91.914 3.68128 91.8278 3.48082C91.7417 3.27907 91.6992 3.06319 91.6992 2.83189C91.6992 2.6006 91.7417 2.38472 91.8278 2.18297C91.9127 1.98123 92.031 1.80647 92.1815 1.65741C92.3319 1.50835 92.5068 1.38885 92.7087 1.30404C92.9093 1.21923 93.1266 1.17554 93.3581 1.17554C93.5895 1.17554 93.8056 1.21923 94.0075 1.30404C94.2093 1.38885 94.3842 1.50835 94.5347 1.65741C94.6851 1.80647 94.8021 1.98251 94.8883 2.18297C94.9745 2.38472 95.0169 2.6006 95.0169 2.83189C95.0169 3.06319 94.9745 3.27907 94.8883 3.48082C94.8034 3.68256 94.6851 3.85732 94.5347 4.00638C94.3855 4.15672 94.2093 4.27494 94.0075 4.35975C93.8069 4.44456 93.5895 4.48825 93.3581 4.48825ZM91.9963 20.0277V6.58151H94.734V20.0264H91.9963V20.0277Z" fill="#F53103"/>
<path d="M98.7242 20.0277V2.33074L101.462 1.03418V20.0277H98.7242Z" fill="#F53103"/>
<path d="M110.996 20.3475C110.062 20.3475 109.218 20.1869 108.465 19.8656C107.71 19.5457 107.068 19.0831 106.537 18.4791C106.006 17.8752 105.597 17.1376 105.311 16.2638C105.024 15.3913 104.88 14.4031 104.88 13.298C104.88 12.1929 105.025 11.2073 105.317 10.3387C105.608 9.46873 106.022 8.73243 106.557 8.12848C107.092 7.52453 107.735 7.06579 108.484 6.7484C109.234 6.43229 110.071 6.27295 110.997 6.27295C111.794 6.27295 112.541 6.40016 113.239 6.65202C113.938 6.90388 114.55 7.29066 115.077 7.80723C115.603 8.32508 116.018 8.97786 116.323 9.76556C116.628 10.5533 116.78 11.481 116.78 12.5527C116.78 12.8431 116.773 13.1515 116.76 13.4779C116.747 13.803 116.719 14.0857 116.677 14.3247H107.616C107.625 14.8811 107.726 15.3797 107.918 15.8205C108.11 16.2612 108.366 16.6377 108.684 16.9513C109 17.2635 109.36 17.5025 109.762 17.6708C110.165 17.8379 110.585 17.9214 111.023 17.9214C111.579 17.9214 112.095 17.8058 112.571 17.5745C113.047 17.3432 113.459 17.0052 113.81 16.5593L115.597 18.3956C115.108 18.979 114.483 19.4493 113.72 19.8078C112.958 20.1676 112.05 20.3475 110.996 20.3475ZM110.996 8.68745C110.567 8.68745 110.156 8.74913 109.762 8.87378C109.368 8.99842 109.019 9.19374 108.714 9.46487C108.411 9.73472 108.16 10.0881 107.962 10.5237C107.765 10.9606 107.65 11.4913 107.615 12.1158H114.041C114.024 11.4913 113.925 10.9593 113.745 10.5237C113.565 10.0881 113.329 9.73472 113.038 9.46487C112.746 9.19503 112.423 8.99842 112.067 8.87378C111.713 8.74913 111.356 8.68745 110.996 8.68745Z" fill="#F53103"/>
<path d="M126.668 20.0276V1.61108H134.43C135.562 1.61108 136.508 1.76528 137.269 2.07368C138.032 2.38208 138.644 2.79071 139.107 3.30085C139.57 3.80971 139.896 4.39053 140.09 5.03945C140.283 5.69094 140.38 6.36299 140.38 7.05689C140.38 7.58759 140.303 8.12215 140.148 8.66185C139.994 9.20026 139.756 9.70783 139.435 10.1833C139.114 10.6587 138.7 11.0776 138.195 11.4426C137.69 11.8062 137.087 12.0825 136.383 12.2714L140.174 20.0276H137.039L133.415 12.5027H129.406V20.0276H126.668ZM134.494 9.86846C135.068 9.86846 135.547 9.79007 135.933 9.63073C136.319 9.47268 136.631 9.26065 136.871 8.99466C137.111 8.72995 137.282 8.43055 137.385 8.09645C137.488 7.76235 137.539 7.4154 137.539 7.0556C137.539 6.73821 137.494 6.41439 137.404 6.07901C137.314 5.74619 137.153 5.44165 136.923 5.16795C136.692 4.89424 136.379 4.67194 135.985 4.49975C135.59 4.32756 135.093 4.24275 134.494 4.24275H129.405V9.86717H134.494V9.86846Z" fill="#040D23"/>
<path d="M149.372 20.3475C148.439 20.3475 147.595 20.1869 146.841 19.8656C146.087 19.5457 145.445 19.0831 144.914 18.4791C144.383 17.8752 143.974 17.1376 143.687 16.2638C143.4 15.3913 143.256 14.4031 143.256 13.298C143.256 12.1929 143.402 11.2073 143.694 10.3387C143.984 9.46873 144.398 8.73243 144.933 8.12848C145.468 7.52453 146.111 7.06579 146.861 6.7484C147.61 6.43229 148.448 6.27295 149.373 6.27295C150.171 6.27295 150.918 6.40016 151.616 6.65202C152.314 6.90388 152.926 7.29066 153.454 7.80723C153.98 8.32508 154.395 8.97786 154.7 9.76556C155.004 10.5533 155.156 11.481 155.156 12.5527C155.156 12.8431 155.15 13.1515 155.137 13.4779C155.124 13.803 155.096 14.0857 155.053 14.3247H145.993C146.002 14.8811 146.102 15.3797 146.295 15.8205C146.487 16.2612 146.742 16.6377 147.06 16.9513C147.376 17.2635 147.736 17.5025 148.139 17.6708C148.541 17.8379 148.962 17.9214 149.399 17.9214C149.956 17.9214 150.472 17.8058 150.947 17.5745C151.423 17.3432 151.836 17.0052 152.187 16.5593L153.973 18.3956C153.484 18.979 152.86 19.4493 152.097 19.8078C151.333 20.1676 150.425 20.3475 149.372 20.3475ZM149.372 8.68745C148.944 8.68745 148.532 8.74913 148.139 8.87378C147.744 8.99842 147.396 9.19374 147.091 9.46487C146.787 9.73472 146.537 10.0881 146.339 10.5237C146.142 10.9606 146.026 11.4913 145.991 12.1158H152.417C152.4 11.4913 152.301 10.9593 152.123 10.5237C151.943 10.0881 151.707 9.73472 151.415 9.46487C151.124 9.19503 150.801 8.99842 150.445 8.87378C150.088 8.74913 149.731 8.68745 149.372 8.68745Z" fill="#040D23"/>
<path d="M168.441 20.0276H165.819V18.8724C165.648 19.0523 165.442 19.2297 165.202 19.4044C164.961 19.5817 164.69 19.7398 164.386 19.8799C164.082 20.0212 163.742 20.1343 163.364 20.2204C162.987 20.3052 162.577 20.3489 162.131 20.3489C161.445 20.3489 160.812 20.2551 160.229 20.0662C159.646 19.8786 159.14 19.5933 158.713 19.2117C158.285 18.8313 157.948 18.3597 157.705 17.7995C157.46 17.2379 157.338 16.5851 157.338 15.8411C157.338 15.0701 157.484 14.4045 157.775 13.8443C158.066 13.2827 158.452 12.8214 158.932 12.4577C159.411 12.0941 159.962 11.8268 160.583 11.6559C161.204 11.4837 161.844 11.3989 162.504 11.3989C163.121 11.3989 163.714 11.4657 164.283 11.5981C164.853 11.7304 165.365 11.9296 165.819 12.1943V11.4503C165.819 10.9453 165.761 10.5174 165.645 10.1666C165.53 9.81451 165.355 9.53053 165.119 9.31208C164.884 9.09491 164.586 8.93686 164.227 8.83791C163.867 8.73897 163.439 8.69014 162.942 8.69014C162.103 8.69014 161.376 8.80193 160.764 9.02295C160.151 9.24526 159.596 9.54081 159.1 9.9096L158.29 7.66214C158.564 7.47453 158.876 7.29592 159.229 7.12887C159.58 6.96182 159.965 6.81405 160.385 6.68555C160.804 6.55833 161.258 6.4581 161.748 6.38486C162.236 6.31161 162.758 6.27563 163.315 6.27563C163.692 6.27563 164.082 6.29748 164.484 6.33988C164.887 6.38357 165.279 6.4671 165.659 6.59046C166.041 6.7151 166.401 6.89115 166.74 7.12245C167.078 7.35374 167.373 7.65572 167.626 8.02837C167.878 8.40102 168.077 8.8559 168.223 9.3956C168.369 9.9353 168.442 10.5765 168.442 11.3218V20.0276H168.441ZM162.631 17.9215C163.325 17.9215 163.94 17.7802 164.475 17.4975C165.011 17.2148 165.459 16.8756 165.818 16.4836V14.4289C165.441 14.2323 165 14.0743 164.494 13.9535C163.989 13.834 163.471 13.7736 162.94 13.7736C162.528 13.7736 162.142 13.8121 161.784 13.8892C161.424 13.9663 161.11 14.0884 160.839 14.2554C160.568 14.4225 160.358 14.6358 160.202 14.8979C160.048 15.1575 159.972 15.4736 159.972 15.8411C159.972 16.4836 160.197 16.9899 160.646 17.3626C161.094 17.7352 161.758 17.9215 162.631 17.9215Z" fill="#040D23"/>
<path d="M171.944 20.0277V2.33074L174.68 1.03418V20.0277H171.944Z" fill="#040D23"/>
<path d="M180.263 4.48825C180.032 4.48825 179.815 4.44456 179.614 4.35975C179.412 4.27494 179.236 4.15672 179.087 4.00638C178.938 3.85732 178.819 3.68128 178.735 3.48082C178.648 3.27907 178.606 3.06319 178.606 2.83189C178.606 2.6006 178.648 2.38472 178.735 2.18297C178.819 1.98123 178.938 1.80647 179.087 1.65741C179.236 1.50835 179.412 1.38885 179.614 1.30404C179.815 1.21923 180.032 1.17554 180.263 1.17554C180.495 1.17554 180.711 1.21923 180.913 1.30404C181.113 1.38885 181.29 1.50835 181.439 1.65741C181.588 1.80647 181.706 1.98251 181.792 2.18297C181.877 2.38472 181.921 2.6006 181.921 2.83189C181.921 3.06319 181.877 3.27907 181.792 3.48082C181.706 3.68256 181.588 3.85732 181.439 4.00638C181.29 4.15672 181.113 4.27494 180.913 4.35975C180.711 4.44456 180.495 4.48825 180.263 4.48825ZM178.9 20.0277V6.58151H181.637V20.0264H178.9V20.0277Z" fill="#040D23"/>
<path d="M189.14 20.3477C188.609 20.3477 188.152 20.2693 187.772 20.11C187.391 19.9519 187.077 19.7271 186.833 19.4354C186.589 19.1449 186.411 18.7916 186.299 18.3765C186.188 17.9615 186.132 17.5014 186.132 16.9964V8.95752H184.052V6.58156H186.132V2.3565L188.87 1.03296V6.58156H192.056V8.95752H188.87V16.2897C188.87 16.512 188.889 16.7176 188.928 16.9065C188.966 17.0954 189.035 17.2573 189.132 17.3948C189.231 17.5323 189.366 17.6364 189.537 17.7096C189.71 17.7829 189.928 17.8188 190.193 17.8188C190.844 17.8188 191.509 17.6094 192.185 17.1905L191.851 19.7335C191.474 19.9224 191.062 20.0714 190.618 20.1832C190.173 20.2924 189.68 20.3477 189.14 20.3477Z" fill="#040D23"/>
<path d="M199.894 25.1252H197.105L199.174 19.7964L194.15 6.58276H196.862L200.177 15.3785C200.271 15.6266 200.344 15.8322 200.396 15.9953C200.447 16.1573 200.498 16.3461 200.55 16.5607C200.601 16.3461 200.653 16.1573 200.704 15.9953C200.756 15.8334 200.829 15.6278 200.923 15.3785L204.265 6.58276H207.001L199.894 25.1252Z" fill="#040D23"/>
<path fill-rule="evenodd" clip-rule="evenodd" d="M4.35408 0.972412C6.75872 0.972412 8.70816 2.92046 8.70816 5.3234V16.6378C8.70816 19.0407 6.75872 20.9888 4.35408 20.9888C1.94943 20.9888 0 19.0407 0 16.6378V5.3234C0 2.92046 1.94943 0.972412 4.35408 0.972412Z" fill="#040D23"/>
<path opacity="0.6" fill-rule="evenodd" clip-rule="evenodd" d="M15.9954 15.8358V16.6428C15.9954 19.0458 17.9448 20.9938 20.3494 20.9938C22.7541 20.9938 24.7035 19.0458 24.7035 16.6428V5.39526C24.6855 6.48494 24.2663 7.56819 23.4343 8.39958L15.9954 15.8358Z" fill="#F53103"/>
<path fill-rule="evenodd" clip-rule="evenodd" d="M23.4357 8.40107C24.2677 7.56967 24.6856 6.48514 24.7049 5.39675V5.33121C24.7049 2.92828 22.7554 0.980225 20.3508 0.980225C20.0512 0.980225 19.758 1.01106 19.4751 1.06889C19.4661 1.07017 19.4584 1.07403 19.4506 1.0766C19.1806 1.13314 18.9209 1.21409 18.6714 1.31818C18.5968 1.34902 18.5299 1.39528 18.4566 1.43126C18.2766 1.51864 18.0966 1.60602 17.932 1.71653C17.752 1.83732 17.5848 1.98252 17.4215 2.13286C16.5522 2.92828 15.9967 4.06164 15.9967 5.3325V15.8386L23.4357 8.40107Z" fill="#F53103"/>
<g opacity="0.6">
<path d="M17.4204 2.13068C17.5619 2.00337 17.7046 1.87735 17.8576 1.77319C17.7072 1.8825 17.5606 2.0008 17.4204 2.13068Z" fill="#F53103"/>
<path d="M15.9956 15.8359V8.63348V5.32976C15.9956 4.0589 16.5499 2.92554 17.4204 2.13013C17.3741 2.17125 17.3227 2.20209 17.2777 2.24706L12.3552 7.16473L7.43409 2.24578C7.42251 2.23421 7.40708 2.2265 7.39551 2.21494C8.20434 3.00521 8.7097 4.10388 8.7097 5.32334V15.8294L9.2305 16.3499C9.24336 16.3666 9.25621 16.3833 9.27164 16.4C10.1229 17.2507 11.2391 17.676 12.3552 17.6734C13.4714 17.6747 14.5876 17.2507 15.4389 16.4C15.4543 16.3833 15.4671 16.3666 15.48 16.3499L15.9956 15.8359Z" fill="#F53103"/>
<path d="M17.9309 1.71412C17.9052 1.73083 17.8833 1.75527 17.8576 1.77327C18.0492 1.64339 18.2485 1.53023 18.453 1.42993C18.2755 1.51737 18.0955 1.60353 17.9309 1.71412Z" fill="#F53103"/>
</g>
</g>
<defs>
<clipPath id="clip0_1_1040">
<rect width="207" height="24.1528" fill="white" transform="translate(0 0.972412)"/>
</clipPath>
</defs>
</svg>
