<svg width="20" height="20" viewBox="0 0 20 20" fill="none" xmlns="http://www.w3.org/2000/svg">
<mask id="mask0_65_65" style="mask-type:luminance" maskUnits="userSpaceOnUse" x="0" y="0" width="19" height="20">
<path d="M9.99894 1.4335C11.9448 1.4335 13.7056 2.0844 15.146 3.17127L13.3161 5.00111C12.3742 4.36308 11.2379 3.9835 9.99894 3.9835C6.66757 3.9835 3.98228 6.66879 3.98228 10.0002C3.98228 13.3315 6.66757 16.0168 9.99894 16.0168C12.7513 16.0168 14.9746 14.5915 15.5035 11.9949L15.6502 11.2752H14.9156H10.5989V8.9335H18.0497C18.1122 9.29665 18.1489 9.66115 18.1489 10.0002C18.1489 15.4837 14.2696 18.5668 9.99894 18.5668C5.24698 18.5668 1.43228 14.7521 1.43228 10.0002C1.43228 5.2482 5.24698 1.4335 9.99894 1.4335Z" fill="white" stroke="white" stroke-width="1.2"/>
</mask>
<g mask="url(#mask0_65_65)">
<path d="M-0.000488281 15.4168V4.5835L7.08285 10.0002L-0.000488281 15.4168Z" fill="#FBBC05"/>
</g>
<mask id="mask1_65_65" style="mask-type:luminance" maskUnits="userSpaceOnUse" x="0" y="0" width="19" height="20">
<path d="M18.5406 8.3335H9.99894V11.8752H14.9156C14.4573 14.1252 12.5406 15.4168 9.99894 15.4168C6.99894 15.4168 4.58228 13.0002 4.58228 10.0002C4.58228 7.00016 6.99894 4.5835 9.99894 4.5835C11.2906 4.5835 12.4573 5.04183 13.3739 5.79183L16.0406 3.12516C14.4156 1.7085 12.3323 0.833496 9.99894 0.833496C4.91561 0.833496 0.832275 4.91683 0.832275 10.0002C0.832275 15.0835 4.91561 19.1668 9.99894 19.1668C14.5823 19.1668 18.7489 15.8335 18.7489 10.0002C18.7489 9.4585 18.6656 8.87516 18.5406 8.3335Z" fill="white"/>
</mask>
<g mask="url(#mask1_65_65)">
<path d="M-0.000488281 4.58333L7.08284 10L9.99951 7.45833L19.9995 5.83333V0H-0.000488281V4.58333Z" fill="#EA4335"/>
</g>
<mask id="mask2_65_65" style="mask-type:luminance" maskUnits="userSpaceOnUse" x="0" y="0" width="19" height="20">
<path d="M18.5406 8.3335H9.99894V11.8752H14.9156C14.4573 14.1252 12.5406 15.4168 9.99894 15.4168C6.99894 15.4168 4.58228 13.0002 4.58228 10.0002C4.58228 7.00016 6.99894 4.5835 9.99894 4.5835C11.2906 4.5835 12.4573 5.04183 13.3739 5.79183L16.0406 3.12516C14.4156 1.7085 12.3323 0.833496 9.99894 0.833496C4.91561 0.833496 0.832275 4.91683 0.832275 10.0002C0.832275 15.0835 4.91561 19.1668 9.99894 19.1668C14.5823 19.1668 18.7489 15.8335 18.7489 10.0002C18.7489 9.4585 18.6656 8.87516 18.5406 8.3335Z" fill="white"/>
</mask>
<g mask="url(#mask2_65_65)">
<path d="M-0.000488281 15.4167L12.4995 5.83333L15.7912 6.25L19.9995 0V20H-0.000488281V15.4167Z" fill="#34A853"/>
</g>
</svg>
