<svg width="463" height="413" viewBox="0 0 463 413" fill="none" xmlns="http://www.w3.org/2000/svg">
<g clip-path="url(#clip0_36_1246)">
<path d="M1.30664 364.919H461.693" stroke="#24232B" stroke-width="2.5" stroke-linecap="round" stroke-linejoin="round"/>
<path d="M143.396 411.695C205.526 411.695 255.892 406.879 255.892 400.938C255.892 394.997 205.526 390.181 143.396 390.181C81.2658 390.181 30.8994 394.997 30.8994 400.938C30.8994 406.879 81.2658 411.695 143.396 411.695Z" fill="#24232B" stroke="#24232B" stroke-width="2.5" stroke-linecap="round" stroke-linejoin="round"/>
<path d="M352.072 411.695C402.297 411.695 443.014 406.879 443.014 400.938C443.014 394.997 402.297 390.181 352.072 390.181C301.846 390.181 261.129 394.997 261.129 400.938C261.129 406.879 301.846 411.695 352.072 411.695Z" fill="#24232B" stroke="#24232B" stroke-width="2.5" stroke-linecap="round" stroke-linejoin="round"/>
<path d="M431.641 1.30542H272.502C266.221 1.30542 261.129 6.39249 261.129 12.6677V338.957C261.129 345.232 266.221 350.32 272.502 350.32H431.641C437.922 350.32 443.014 345.232 443.014 338.957V12.6677C443.014 6.39249 437.922 1.30542 431.641 1.30542Z" fill="#43BCCD" stroke="#24232B" stroke-width="2.5" stroke-linecap="round" stroke-linejoin="round"/>
<path d="M432.205 21.2416V330.749C432.205 335.49 428.369 339.333 423.623 339.333H280.52C275.774 339.333 271.927 335.49 271.927 330.749V21.2416C271.927 16.5108 275.774 12.6677 280.52 12.6677H423.623C428.369 12.6677 432.205 16.5108 432.205 21.2416Z" fill="white" stroke="#24232B" stroke-width="2.5" stroke-linecap="round" stroke-linejoin="round"/>
<path d="M380.117 303.471H317.9V339.333H380.117V303.471Z" fill="#24232B" stroke="#24232B" stroke-width="2.5" stroke-linecap="round" stroke-linejoin="round"/>
<path d="M372.706 288.976H332.409C325.019 288.976 319.019 282.992 319.019 275.598C319.019 268.214 325.008 262.22 332.409 262.22H372.706C380.096 262.22 386.096 268.204 386.096 275.598C386.096 282.981 380.107 288.976 372.706 288.976Z" fill="#B5B5BA"/>
<path d="M372.706 262.22H332.409C327.057 262.22 322.458 265.363 320.315 269.896C322.636 267.974 325.615 266.815 328.866 266.815H369.162C376.553 266.815 382.553 272.799 382.553 280.193C382.553 282.24 382.082 284.161 381.267 285.895C384.225 283.441 386.107 279.744 386.107 275.598C386.107 268.214 380.117 262.22 372.716 262.22H372.706Z" fill="white"/>
<path d="M372.706 288.976H332.409C325.019 288.976 319.019 282.992 319.019 275.598C319.019 268.214 325.008 262.22 332.409 262.22H372.706C380.096 262.22 386.096 268.204 386.096 275.598C386.096 282.981 380.107 288.976 372.706 288.976Z" stroke="#24232B" stroke-width="2.5" stroke-linecap="round" stroke-linejoin="round"/>
<path d="M377.285 303.471H317.9C332.503 310.98 330.036 323.042 330.036 326.216V384.093C330.036 396.218 339.873 406.045 352.009 406.045H399.257V325.433C399.257 313.309 389.421 303.481 377.285 303.481V303.471Z" fill="white" stroke="#24232B" stroke-width="2.5" stroke-linecap="round" stroke-linejoin="round"/>
<path d="M409.062 406.045H352.636C359.274 406.045 364.647 400.677 364.647 394.045V384.793H426.101C426.101 396.531 420.811 406.045 409.062 406.045Z" fill="white" stroke="#24232B" stroke-width="2.5" stroke-linecap="round" stroke-linejoin="round"/>
<path d="M344.922 324.023H385.887" stroke="#24232B" stroke-width="2.5" stroke-linecap="round" stroke-linejoin="round"/>
<path d="M344.922 335.678H385.887" stroke="#24232B" stroke-width="2.5" stroke-linecap="round" stroke-linejoin="round"/>
<path d="M344.922 347.322H385.887" stroke="#24232B" stroke-width="2.5" stroke-linecap="round" stroke-linejoin="round"/>
<path d="M344.922 358.967H385.887" stroke="#24232B" stroke-width="2.5" stroke-linecap="round" stroke-linejoin="round"/>
<path d="M339.883 271.922H342.894C343.427 271.922 343.908 272.016 344.326 272.204C344.754 272.392 345.089 272.674 345.35 273.05C345.601 273.426 345.727 273.896 345.727 274.47C345.727 275.044 345.601 275.514 345.35 275.911C345.099 276.308 344.754 276.611 344.326 276.809C343.897 277.018 343.416 277.123 342.894 277.123H341.754V280.203H339.883V271.932V271.922ZM341.754 275.64H342.371C342.622 275.64 342.852 275.598 343.061 275.525C343.26 275.452 343.427 275.326 343.542 275.17C343.657 275.013 343.72 274.783 343.72 274.512C343.72 274.24 343.657 274.021 343.542 273.854C343.416 273.697 343.26 273.572 343.061 273.509C342.862 273.436 342.632 273.405 342.371 273.405H341.754V275.64Z" fill="#24232B"/>
<path d="M349.824 271.922H351.685L354.957 280.193H352.96L352.354 278.532H349.166L348.56 280.193H346.552L349.824 271.922ZM349.793 276.893H351.727L350.765 274.178H350.744L349.783 276.893H349.793Z" fill="#24232B"/>
<path d="M358.103 277.217L355.25 271.922H357.528L359.044 275.076L360.56 271.922H362.828L359.985 277.217V280.193H358.114V277.217H358.103Z" fill="#24232B"/>
<path d="M415.167 65.0198H287.827C285.159 65.0198 282.997 67.1799 282.997 69.8446V150.038C282.997 152.703 285.159 154.863 287.827 154.863H415.167C417.834 154.863 419.996 152.703 419.996 150.038V69.8446C419.996 67.1799 417.834 65.0198 415.167 65.0198Z" fill="#B5B5BA" stroke="#24232B" stroke-width="2.5" stroke-linecap="round" stroke-linejoin="round"/>
<path d="M297.036 79.8074H353.201" stroke="white" stroke-width="2.5" stroke-linecap="round" stroke-linejoin="round"/>
<path d="M396.947 93.2792C393.236 93.2792 390.205 90.2506 390.205 86.5433C390.205 82.8359 393.236 79.8074 396.947 79.8074C400.658 79.8074 403.689 82.8359 403.689 86.5433C403.689 90.2506 400.658 93.2792 396.947 93.2792Z" stroke="white" stroke-width="2.5" stroke-linecap="round" stroke-linejoin="round"/>
<path d="M297.036 133.883H344.922" stroke="white" stroke-width="2.5" stroke-linecap="round" stroke-linejoin="round"/>
<path d="M380.117 133.883H409.835" stroke="white" stroke-width="2.5" stroke-linecap="round" stroke-linejoin="round"/>
<path d="M320.179 123.565C324.987 123.544 329.796 123.481 334.604 123.377" stroke="white" stroke-width="2.5" stroke-linecap="round" stroke-linejoin="round"/>
<path d="M297.036 123.377C300.736 123.46 304.447 123.512 308.148 123.544" stroke="white" stroke-width="2.5" stroke-linecap="round" stroke-linejoin="round"/>
<path d="M285.13 176.512H414.769" stroke="#24232B" stroke-width="2.5" stroke-linecap="round" stroke-linejoin="round"/>
<path d="M285.13 248.957H414.769" stroke="#24232B" stroke-width="2.5" stroke-linecap="round" stroke-linejoin="round"/>
<path d="M358.741 38.2955C361.626 38.2955 364.521 38.2746 367.406 38.2642" stroke="#24232B" stroke-width="2.5" stroke-linecap="round" stroke-linejoin="round"/>
<path d="M347.179 38.3269C349.343 38.3269 351.517 38.3269 353.681 38.3269" stroke="#24232B" stroke-width="2.5" stroke-linecap="round" stroke-linejoin="round"/>
<path d="M334.897 38.3164C337.542 38.3164 340.197 38.3164 342.841 38.3164" stroke="#24232B" stroke-width="2.5" stroke-linecap="round" stroke-linejoin="round"/>
<path d="M320.367 38.2642C323.754 38.285 327.151 38.2955 330.538 38.3059" stroke="#24232B" stroke-width="2.5" stroke-linecap="round" stroke-linejoin="round"/>
<path d="M293.597 43.7573V42.1699C292.478 42.1177 291.391 41.8149 290.753 41.4494L291.255 39.4965C291.956 39.8829 292.949 40.2275 294.036 40.2275C294.987 40.2275 295.645 39.862 295.645 39.1936C295.645 38.5252 295.112 38.1597 293.868 37.742C292.081 37.1363 290.858 36.3008 290.858 34.6821C290.858 33.2096 291.893 32.0609 293.691 31.7058V30.1184H295.332V31.5909C296.45 31.6431 297.203 31.8729 297.757 32.1444L297.276 34.0346C296.837 33.8467 296.074 33.4707 294.872 33.4707C293.785 33.4707 293.429 33.9406 293.429 34.4106C293.429 34.9641 294.015 35.3087 295.436 35.8518C297.423 36.5515 298.227 37.4705 298.227 38.9743C298.227 40.4781 297.172 41.7313 295.248 42.0655V43.7678H293.607L293.597 43.7573Z" fill="#24232B"/>
<path d="M308.147 38.2642H316.395" stroke="#24232B" stroke-width="2.5" stroke-linecap="round" stroke-linejoin="round"/>
<path d="M317.9 192.563H372.957" stroke="#24232B" stroke-width="2.5" stroke-linecap="round" stroke-linejoin="round"/>
<path d="M317.9 201.837H349.009" stroke="#24232B" stroke-width="2.5" stroke-linecap="round" stroke-linejoin="round"/>
<path d="M295.165 192.563H310.019" stroke="#EB644E" stroke-width="2.5" stroke-linecap="round" stroke-linejoin="round"/>
<path d="M393.926 192.563H408.78" stroke="#24232B" stroke-width="2.5" stroke-linecap="round" stroke-linejoin="round"/>
<path d="M295.165 221.481H310.019" stroke="#EB644E" stroke-width="2.5" stroke-linecap="round" stroke-linejoin="round"/>
<path d="M317.9 220.656H372.957" stroke="#24232B" stroke-width="2.5" stroke-linecap="round" stroke-linejoin="round"/>
<path d="M317.9 229.929H349.009" stroke="#24232B" stroke-width="2.5" stroke-linecap="round" stroke-linejoin="round"/>
<path d="M394.971 220.656H409.836" stroke="#24232B" stroke-width="2.5" stroke-linecap="round" stroke-linejoin="round"/>
<path d="M393.027 31.4238H408.309C409.167 31.4238 409.867 32.1235 409.867 32.9799V47.047C409.867 47.9033 409.167 48.603 408.309 48.603H393.027C391.689 48.603 390.602 47.5169 390.602 46.1802V33.8467C390.602 32.5099 391.689 31.4238 393.027 31.4238Z" fill="#B5B5BA" stroke="#24232B" stroke-width="2.5" stroke-linecap="round" stroke-linejoin="round"/>
<path d="M407.912 27.2048H393.863C392.066 27.2048 390.613 28.6564 390.613 30.4527V33.8468" stroke="#24232B" stroke-width="2.5" stroke-linecap="round" stroke-linejoin="round"/>
<path d="M406.051 40.2067C406.051 41.0108 405.393 41.6687 404.588 41.6687C403.783 41.6687 403.125 41.0108 403.125 40.2067C403.125 39.4026 403.783 38.7446 404.588 38.7446C405.393 38.7446 406.051 39.4026 406.051 40.2067Z" fill="#24232B"/>
<path d="M208.174 396.322L124.455 402.588C116.636 402.588 110.301 396.259 110.301 388.448V304.85C110.301 297.038 116.636 291.754 124.455 291.754L208.174 284.443C213.191 284.443 217.247 288.506 217.247 293.508V387.257C217.247 392.27 213.181 396.322 208.174 396.322Z" fill="#43BCCD" stroke="#24232B" stroke-width="2.5" stroke-linecap="round" stroke-linejoin="round"/>
<path d="M107.479 292.182H191.198C196.205 292.182 200.271 296.244 200.271 301.247V394.996C200.271 399.998 196.205 404.061 191.198 404.061H107.479C99.6705 404.061 93.3254 397.722 93.3254 389.92V306.322C93.3254 298.521 99.6705 292.182 107.479 292.182Z" fill="#43BCCD"/>
<path d="M191.198 292.182H107.479C103.538 292.182 99.9736 293.79 97.4126 296.391C98.2593 296.182 99.1478 296.067 100.057 296.067H189.735C193.1 296.067 195.829 298.792 195.829 302.155V401.857C195.829 402.191 195.797 402.525 195.745 402.839C198.452 401.272 200.282 398.348 200.282 394.996V301.247C200.282 296.234 196.215 292.182 191.208 292.182H191.198Z" fill="white"/>
<path d="M107.479 292.182H191.198C196.205 292.182 200.271 296.244 200.271 301.247V394.996C200.271 399.998 196.205 404.061 191.198 404.061H107.479C99.6705 404.061 93.3254 397.722 93.3254 389.92V306.322C93.3254 298.521 99.6705 292.182 107.479 292.182Z" stroke="#24232B" stroke-width="2.5" stroke-linecap="round" stroke-linejoin="round"/>
<path d="M186.097 397.638H111.995C105.075 397.638 99.4614 392.03 99.4614 385.116V311.115C99.4614 304.202 105.075 298.594 111.995 298.594H186.097C190.529 298.594 194.135 302.186 194.135 306.625V389.607C194.135 394.035 190.539 397.638 186.097 397.638Z" fill="#43BCCD"/>
<path d="M186.097 397.638H111.995C105.075 397.638 99.4614 392.03 99.4614 385.116V311.115C99.4614 304.202 105.075 298.594 111.995 298.594H186.097C190.529 298.594 194.135 302.186 194.135 306.625V389.607C194.135 394.035 190.539 397.638 186.097 397.638Z" stroke="#24232B" stroke-width="2.5" stroke-linecap="round" stroke-linejoin="round"/>
<path d="M198.892 362.329H181.132C175.957 362.329 171.724 358.1 171.724 352.93C171.724 347.761 175.957 343.531 181.132 343.531H198.892C204.066 343.531 208.299 347.761 208.299 352.93C208.299 358.1 204.066 362.329 198.892 362.329Z" fill="#43BCCD" stroke="#24232B" stroke-width="2.5" stroke-linecap="round" stroke-linejoin="round"/>
<path d="M200.24 352.92C200.24 355.468 198.17 357.546 195.609 357.546C193.048 357.546 190.979 355.478 190.979 352.92C190.979 350.361 193.048 348.293 195.609 348.293C198.17 348.293 200.24 350.361 200.24 352.92Z" fill="white" stroke="#24232B" stroke-width="2.5" stroke-linecap="round" stroke-linejoin="round"/>
<path d="M37.5163 373.462C35.8333 372.438 32.896 370.506 30.2305 367.29C28.2444 364.898 34.0354 364.063 37.7881 365.963C45.2934 369.765 46.2028 369.953 46.2028 369.953L37.5163 373.462Z" fill="#24232B" stroke="#24232B" stroke-width="2.5" stroke-linecap="round" stroke-linejoin="round"/>
<path d="M228.735 229.136C235.477 230.546 242.93 227.893 247.822 223.204" stroke="#24232B" stroke-width="2.5" stroke-linecap="round" stroke-linejoin="round"/>
<path d="M138.253 348.596L102.242 374.6L97.4963 398.442L146.657 365.201L138.253 348.596Z" fill="#B5B5BA" stroke="#24232B" stroke-width="2.5" stroke-linecap="round" stroke-linejoin="round"/>
<path d="M232.613 238.19C236.031 238.159 239.418 237.261 242.45 235.694" stroke="#24232B" stroke-width="2.5" stroke-linecap="round" stroke-linejoin="round"/>
<path d="M208.529 235.015C208.529 235.015 215.073 237.804 217.247 235.684C219.087 233.898 219.003 231.057 216.725 231.266C207.484 232.112 208.101 227.371 208.101 227.371L208.529 235.015Z" fill="#24232B" stroke="#24232B" stroke-width="2.5" stroke-linecap="round" stroke-linejoin="round"/>
<path d="M124.12 224.019C124.12 224.019 68.0917 223.611 39.1156 253.051C22.1502 270.293 58.6107 318.844 63.7327 329.537C68.8548 340.242 89.9701 382.13 89.9701 382.13C89.9701 382.13 112.883 376.689 132.619 356.262C140.469 348.137 145.173 347.093 146.396 347.375C147.514 347.636 131.657 336.044 130.361 323.689C127.288 294.542 106.549 267.974 109.549 264.142C113.709 258.836 154.727 253.04 154.727 253.04L143.919 219.382L124.12 224.008V224.019Z" fill="white" stroke="#24232B" stroke-width="2.5" stroke-linecap="round" stroke-linejoin="round"/>
<path d="M85.7679 382.558L51.4085 368.104L21.4498 378.767L81.0744 401.92L85.7679 382.558Z" fill="#B5B5BA" stroke="#24232B" stroke-width="2.5" stroke-linecap="round" stroke-linejoin="round"/>
<path d="M150.859 231.339L217.874 227.308C217.874 227.308 223.111 255.39 216.568 274.815C210.024 294.239 185.083 301.299 164.198 302.751C143.312 304.192 124.235 307.001 124.235 307.001C124.235 307.001 125.573 335.532 108.378 351.301C97.8098 360.993 100.298 383.049 98.5833 390.401C96.869 397.753 54.4816 374.788 48.168 370.381C41.8543 365.985 31.2653 364.157 31.2653 364.157C31.2653 364.157 47.3944 342.226 48.9206 335.292C50.4467 328.357 64.7571 284.308 71.8234 271.932C86.7504 245.793 150.87 231.329 150.87 231.329L150.859 231.339Z" fill="white" stroke="#24232B" stroke-width="2.5" stroke-linecap="round" stroke-linejoin="round"/>
<path d="M241.185 164.221C235.394 173.432 212.7 189.117 212.7 189.117C220.279 215.027 221.491 219.257 218.543 233.115C218.543 233.115 195.62 226.358 171.107 232.154C127.727 242.399 106.12 230.222 106.549 225.241C106.549 225.157 110.709 225.199 114.294 182.945C111.911 184.387 105.179 177.651 93.3255 175.823C84.2522 174.424 80.4891 176.095 75.5343 177.703C73.6528 178.309 70.6632 177.233 71.8862 174.831C74.2172 170.278 77.2068 163.448 79.0884 159.803C80.1337 157.777 80.9386 155.636 81.5239 153.433C84.294 143.052 88.2662 136.567 92.9492 132.41C92.9597 132.39 92.9701 132.379 92.9806 132.379C100.82 125.424 110.657 124.923 120.263 123.471C124.047 122.928 157.832 114.594 157.832 114.594C157.832 114.594 185.992 120.463 190.341 119.231C204.86 115.336 216.714 118.385 225.808 129.821C228.422 133.1 231.474 140.232 233.711 146.049C235.561 150.853 242.418 159.918 242.45 160.033C242.722 161.14 242.23 162.581 241.185 164.231V164.221Z" fill="#B5B5BA"/>
<path d="M241.185 164.221C241.185 164.043 241.164 163.866 241.122 163.709C241.091 163.594 234.234 154.529 232.383 149.725C230.146 143.908 227.094 136.776 224.481 133.486C215.387 122.061 203.533 119.012 189.013 122.907C184.665 124.139 156.504 118.27 156.504 118.27C156.504 118.27 122.72 126.594 118.936 127.147C107.521 128.87 95.782 129.267 87.4613 140.713C89.1024 137.329 90.9422 134.603 92.9492 132.4C92.9596 132.379 92.9701 132.369 92.9805 132.369C100.82 125.413 110.657 124.912 120.263 123.461C124.047 122.917 157.832 114.584 157.832 114.584C157.832 114.584 185.992 120.453 190.341 119.221C204.86 115.325 216.714 118.375 225.808 129.81C228.422 133.089 231.474 140.222 233.711 146.039C235.561 150.843 242.418 159.908 242.45 160.022C242.721 161.129 242.23 162.571 241.185 164.221Z" fill="white"/>
<path d="M208.833 191.206C215.125 212.73 217.477 222.974 216.254 232.52C217.739 232.864 218.543 233.104 218.543 233.104C221.387 219.758 220.362 215.33 213.505 191.853C210.955 193.712 208.833 191.196 208.833 191.196V191.206Z" fill="white"/>
<path d="M241.185 164.221C235.394 173.432 212.7 189.117 212.7 189.117C220.279 215.027 221.491 219.257 218.543 233.115C218.543 233.115 195.62 226.358 171.107 232.154C127.727 242.399 106.12 230.222 106.549 225.241C106.549 225.157 114.284 184.032 114.294 183.948C114.065 183.948 105.179 177.651 93.3255 175.823C84.2522 174.424 80.4891 176.095 75.5343 177.703C73.6528 178.309 70.6632 177.233 71.8862 174.831C74.2172 170.278 77.2068 163.448 79.0884 159.803C80.1337 157.777 80.9386 155.636 81.5239 153.433C84.294 143.052 88.2662 136.567 92.9492 132.41C92.9597 132.39 92.9701 132.379 92.9806 132.379C100.82 125.424 110.657 124.923 120.263 123.471C124.047 122.928 157.832 114.594 157.832 114.594C157.832 114.594 185.992 120.463 190.341 119.231C204.86 115.336 216.714 118.385 225.808 129.821C228.422 133.1 231.474 140.232 233.711 146.049C235.561 150.853 242.418 159.918 242.45 160.033C242.722 161.14 242.23 162.581 241.185 164.231V164.221Z" stroke="#24232B" stroke-width="2.5" stroke-linecap="round" stroke-linejoin="round"/>
<path d="M163.508 124.494C162.389 128.39 158.156 129.601 153.504 127.68C152.94 127.439 152.375 127.157 151.8 126.834C151.633 126.729 151.455 126.635 151.278 126.52C150.88 126.27 150.483 125.998 150.107 125.727C145.361 122.207 142.56 116.401 143.762 112.224C144.483 109.738 146.459 108.328 149.009 108.151C149.135 108.151 149.26 108.14 149.386 108.151C149.563 108.151 149.752 108.151 149.929 108.151C151.79 108.213 153.881 108.882 155.982 110.177C161.428 113.571 164.794 119.972 163.497 124.484L163.508 124.494Z" fill="#24232B" stroke="#24232B" stroke-width="2.5" stroke-linecap="round" stroke-linejoin="round"/>
<path d="M163.79 121.173C158.02 125.33 149.971 124.066 144.441 118.594C143.772 117.925 143.145 117.194 142.549 116.411C142.382 116.171 142.194 115.931 142.027 115.68C141.64 115.106 141.274 114.5 140.95 113.905C136.873 106.354 138.264 97.206 144.452 92.7467C148.142 90.0941 152.762 89.6346 157.037 91.0758C157.246 91.1489 157.445 91.222 157.654 91.316C157.947 91.4204 158.239 91.5457 158.532 91.6815C161.469 92.9869 164.156 95.2009 166.215 98.219C171.546 106.072 170.47 116.338 163.78 121.163L163.79 121.173Z" fill="#FBD7C2"/>
<path d="M166.226 98.2399C164.166 95.2218 161.469 92.9974 158.543 91.7024C158.25 91.5771 157.957 91.4414 157.665 91.3369C157.455 91.2429 157.246 91.1594 157.048 91.0967C152.762 89.6451 148.142 90.1046 144.462 92.7677C144.4 92.8094 144.347 92.8617 144.285 92.9139C147.232 91.8904 150.462 91.9322 153.525 92.9661C153.734 93.0392 153.933 93.1123 154.142 93.2063C154.435 93.3107 154.727 93.436 155.02 93.5718C157.957 94.8772 160.644 97.0912 162.703 100.109C167.992 107.9 166.968 118.061 160.414 122.928C161.595 122.521 162.734 121.946 163.801 121.184C170.491 116.369 171.557 106.093 166.236 98.2399H166.226Z" fill="white"/>
<path d="M163.79 121.173C158.02 125.33 149.971 124.066 144.441 118.594C143.772 117.925 143.145 117.194 142.549 116.411C142.382 116.171 142.194 115.931 142.027 115.68C141.64 115.106 141.274 114.5 140.95 113.905C136.873 106.354 138.264 97.206 144.452 92.7467C148.142 90.0941 152.762 89.6346 157.037 91.0758C157.246 91.1489 157.445 91.222 157.654 91.316C157.947 91.4204 158.239 91.5457 158.532 91.6815C161.469 92.9869 164.156 95.2009 166.215 98.219C171.546 106.072 170.47 116.338 163.78 121.163L163.79 121.173Z" stroke="#24232B" stroke-width="2.5" stroke-linecap="round" stroke-linejoin="round"/>
<path d="M159.264 83.1495C156.64 78.262 151.267 78.4709 149.699 81.5412C149.427 82.0634 149.166 82.5124 149.072 83.0032C148.863 84.2042 147.995 85.1963 146.772 85.2903C146.657 85.2903 146.542 85.3112 146.427 85.3321C144.891 85.5723 143.574 86.7002 143.093 88.1727C142.528 89.948 143.177 91.7025 144.452 92.7364C144.452 92.7364 144.431 92.7468 144.42 92.7573C138.243 97.2061 136.852 106.354 140.919 113.915C141.243 114.521 141.629 115.148 142.016 115.722C142.403 115.847 142.685 115.931 143.072 116.067C149.866 113.571 150.4 110.25 149.626 106.375C149.051 103.503 152.271 101.164 152.417 101.091C157.811 98.6368 163.738 91.5458 159.222 83.1495H159.264Z" fill="#24232B" stroke="#24232B" stroke-width="2.5" stroke-linecap="round" stroke-linejoin="round"/>
<path d="M114.294 183.937C114.42 181.65 116.406 166.079 119.646 157.495" stroke="#24232B" stroke-width="2.5" stroke-linecap="round" stroke-linejoin="round"/>
<path d="M154.34 132.619C157.152 134.844 161.009 134.708 163.936 132.776" stroke="#24232B" stroke-width="2.5" stroke-linecap="round" stroke-linejoin="round"/>
<path d="M201.045 178.016C201.045 178.016 203.135 165.014 223.937 161.808C224.962 161.651 236.366 161.505 236.753 160.565C236.753 160.565 271.927 106.605 285.997 107.273C297.82 107.827 280.018 125.016 282.663 123.387C285.788 121.466 290.921 121.288 290.085 128.316C289.907 129.852 294.663 127.115 296.858 132.327C298.165 135.428 296.952 138.687 293.639 143.355C291.517 146.342 287.649 148.597 285.632 152.252C264.673 190.245 255.788 201.722 251.105 207.873C242.439 219.277 236.199 219.82 234.725 219.392C231.066 218.317 227.554 216.489 214.728 199.947C212.575 197.169 210.609 194.245 208.822 191.216L201.034 178.026L201.045 178.016Z" fill="#FBD7C2"/>
<path d="M230.063 161.944C230.063 161.944 230.167 161.787 230.355 161.495C227.397 161.662 224.428 161.735 223.927 161.808C221.732 162.142 219.745 162.602 217.948 163.134C220.676 162.988 229.707 162.779 230.052 161.944H230.063Z" fill="white"/>
<path d="M296.858 132.327C294.663 127.105 289.907 129.841 290.084 128.316C290.921 121.288 285.778 121.466 282.663 123.387C280.018 125.016 297.82 107.837 285.997 107.273C284.471 107.2 282.705 107.775 280.75 108.84C289.499 110.772 278.074 122.677 275.973 124.755C274.583 126.134 276.893 130.802 279.098 129.11C282.987 126.123 288.59 127.116 290.785 132.337C292.091 135.439 290.273 140.065 286.949 144.733C284.827 147.72 280.959 149.976 278.941 153.631C257.983 191.624 249.098 203.101 244.415 209.252C240.328 214.63 236.784 217.596 234.024 219.173C234.265 219.256 234.495 219.319 234.725 219.392C236.188 219.82 242.439 219.277 251.105 207.873C255.777 201.722 264.673 190.245 285.631 152.252C287.649 148.597 291.506 146.342 293.639 143.355C296.963 138.687 298.165 135.418 296.858 132.327Z" fill="white"/>
<path d="M201.045 178.016C201.045 178.016 203.135 165.014 223.937 161.808C224.962 161.651 236.366 161.505 236.753 160.565C236.753 160.565 271.927 106.605 285.997 107.273C297.82 107.827 280.018 125.016 282.663 123.387C285.788 121.466 290.921 121.288 290.085 128.316C289.907 129.852 294.663 127.115 296.858 132.327C298.165 135.428 296.952 138.687 293.639 143.355C291.517 146.342 287.649 148.597 285.632 152.252C264.673 190.245 255.788 201.722 251.105 207.873C242.439 219.277 236.199 219.82 234.725 219.392C231.066 218.317 227.554 216.489 214.728 199.947C212.575 197.169 210.609 194.245 208.822 191.216L201.034 178.026L201.045 178.016Z" stroke="#24232B" stroke-width="2.5" stroke-linecap="round" stroke-linejoin="round"/>
<path d="M283.896 121.904C283.896 121.904 277.875 128.452 277.948 133.893C278.001 137.705 281.931 142.3 288.203 132.149C288.882 131.053 291.496 125.539 288.475 122.802" stroke="#24232B" stroke-width="2.5" stroke-linecap="round" stroke-linejoin="round"/>
<path d="M289.886 129.11C289.886 129.11 286.781 134.551 285.82 139.898C284.973 144.597 288.893 149.882 295.008 141.287C295.761 140.232 300.057 133.371 294.663 129.59" stroke="#24232B" stroke-width="2.5" stroke-linecap="round" stroke-linejoin="round"/>
<path d="M169.309 91.6189C168.714 92.5693 167.177 92.1724 167.125 91.055C166.989 88.3293 166.529 83.9222 164.971 81.7291C162.619 78.4082 164.198 76.6642 166.132 77.6354C168.065 78.6066 170.752 85.1232 170.229 88.9246C170.072 90.0942 169.717 90.961 169.32 91.6085L169.309 91.6189Z" fill="#24232B" stroke="#24232B" stroke-width="2.5" stroke-linecap="round" stroke-linejoin="round"/>
<path d="M159.87 73.5102C159.619 72.8418 159.954 72.1213 160.623 71.9228C161.292 71.7244 162.013 72.1004 162.264 72.7687C162.515 73.4371 162.159 74.0219 161.501 74.2308C160.842 74.4397 160.121 74.1786 159.881 73.5102H159.87Z" fill="#24232B" stroke="#24232B" stroke-width="2.5" stroke-linecap="round" stroke-linejoin="round"/>
<path d="M236.753 160.565C236.753 160.565 225.819 170.121 223.937 175.813" stroke="#24232B" stroke-width="2.5" stroke-linecap="round" stroke-linejoin="round"/>
<path d="M279.098 111.106C281.816 114.02 285.454 111.785 289.468 108.568" stroke="#24232B" stroke-width="2.5" stroke-linecap="round" stroke-linejoin="round"/>
<path d="M114.294 183.937C114.284 184.01 111.911 204.03 111.033 211.382C108.138 223.162 99.9109 245.459 91.4543 239.527C91.3707 239.464 83.8131 233.605 76.2869 227.757L76.1719 228.102C76.1719 228.102 74.5098 226.765 71.8129 224.593C69.1265 222.431 65.4052 219.434 61.2866 216.103C48.6697 205.9 32.3001 192.647 30.3768 190.903C23.4463 184.606 24.0735 177.149 24.0735 177.149C24.0735 177.149 21.7738 174.789 21.4811 170.81C21.1362 166.226 24.2199 167.249 24.2199 167.249C24.2199 167.249 23.6972 166.309 23.2582 165.213C22.6833 163.813 22.9028 162.132 23.9899 161.067C24.9829 160.074 26.6973 159.542 29.5091 161.307C36.7009 165.818 39.5859 167.594 44.3839 169.003C44.9066 169.15 48.7638 168.899 45.2724 159.051C43.8195 154.947 49.9973 153.474 58.5061 163.072C59.0288 163.656 65.6665 172.481 66.1473 173.097C66.2623 173.243 66.7327 173.619 67.4749 174.162C68.2798 174.747 69.4087 175.551 70.7676 176.512C71.4471 176.993 72.1788 177.515 72.9628 178.068C73.2555 177.118 73.5168 176.262 73.7258 175.541C77.7503 174.225 81.6284 173.212 89.3114 174.392C101.155 176.209 114.054 183.937 114.294 183.937Z" fill="#FBD7C2" stroke="#24232B" stroke-width="2.5" stroke-linecap="round" stroke-linejoin="round"/>
<path d="M24.2095 167.26C28.3803 173.484 38.8752 179.071 38.8752 179.071" stroke="#24232B" stroke-width="2.5" stroke-linecap="round" stroke-linejoin="round"/>
<path d="M24.0736 177.139C28.3907 181.629 34.234 185.525 34.234 185.525" stroke="#24232B" stroke-width="2.5" stroke-linecap="round" stroke-linejoin="round"/>
<path d="M147.661 351.562C145.591 357.233 143.291 358.194 143.291 358.194L139.141 350.946C139.141 350.946 150.535 343.667 147.661 351.562Z" fill="#24232B" stroke="#24232B" stroke-width="2.5" stroke-linecap="round" stroke-linejoin="round"/>
<path d="M289.625 96.4124C289.625 97.8535 289.677 99.2947 289.739 100.725" stroke="#24232B" stroke-width="2.5" stroke-linecap="round" stroke-linejoin="round"/>
<path d="M296.273 107.357C297.715 107.336 299.158 107.242 300.59 107.221" stroke="#24232B" stroke-width="2.5" stroke-linecap="round" stroke-linejoin="round"/>
<path d="M294.59 102.49C295.51 101.509 296.409 100.517 297.339 99.5454" stroke="#24232B" stroke-width="2.5" stroke-linecap="round" stroke-linejoin="round"/>
<path d="M257.858 133.883C275.889 120.317 278.116 127.92 276.151 131.544C273.746 135.972 268.321 138.614 268.656 140.42C269.158 143.094 267.788 147.083 267.788 147.083" fill="#FBD7C2"/>
<path d="M257.858 133.883C275.889 120.317 278.116 127.92 276.151 131.544C273.746 135.972 268.321 138.614 268.656 140.42C269.158 143.094 267.788 147.083 267.788 147.083" stroke="#24232B" stroke-width="2.5" stroke-linecap="round" stroke-linejoin="round"/>
<path d="M275.889 128.421C275.889 128.598 270.338 133.517 265.76 130.154" stroke="#24232B" stroke-width="2.5" stroke-linecap="round" stroke-linejoin="round"/>
<path d="M51.5338 182.987L32.9064 185.848C31.9342 185.995 30.9621 184.919 30.7321 183.436L23.07 149.924C22.84 148.441 23.4463 147.114 24.408 146.968L42.6278 144.639C43.5999 144.493 44.5721 145.569 44.802 147.052L52.8718 180.032C53.1018 181.514 52.4955 182.841 51.5338 182.987Z" fill="#24232B" stroke="#24232B" stroke-width="2.5" stroke-linecap="round" stroke-linejoin="round"/>
<path d="M49.4432 180.637L33.7113 182.935C32.9377 183.05 32.1538 182.193 31.9761 181.003L25.5265 151.145C25.3383 149.955 25.8192 148.9 26.6032 148.775L42.0111 146.916C42.7846 146.801 43.5686 147.657 43.7463 148.848L50.5199 178.277C50.7081 179.468 50.2272 180.522 49.4432 180.648V180.637Z" fill="white"/>
<path d="M38.1226 174.549L37.809 172.418C36.2933 172.565 34.7776 172.377 33.8577 172.011L34.1504 169.296C35.1643 169.672 36.5546 169.954 38.018 169.745C39.2933 169.557 40.0982 168.941 39.9728 168.043C39.8473 167.186 39.0529 166.758 37.3177 166.434C34.7985 165.975 33.0005 165.098 32.6869 162.925C32.4047 160.952 33.565 159.208 35.896 158.393L35.5825 156.263L37.7776 155.939L38.0598 157.913C39.5755 157.767 40.6209 157.934 41.4153 158.184L41.1331 160.806C40.5163 160.638 39.4083 160.273 37.7985 160.513C36.3455 160.722 35.9588 161.422 36.0528 162.048C36.1574 162.79 37.0145 163.145 39.0215 163.583C41.823 164.137 43.0773 165.213 43.37 167.228C43.6627 169.223 42.492 171.123 39.9832 171.948L40.3177 174.236L38.1226 174.559V174.549Z" fill="#B5B5BA"/>
<path d="M50.9068 156.816C50.9068 156.816 42.5443 151.97 40.4746 154.237C37.9763 156.962 42.2934 161.568 46.0461 164.502C49.7987 167.437 52.9242 173.034 52.9242 173.034" fill="#FBD7C2"/>
<path d="M50.9068 156.816C50.9068 156.816 42.5443 151.97 40.4746 154.237C37.9763 156.962 42.2934 161.568 46.0461 164.502C49.7987 167.437 52.9242 173.034 52.9242 173.034" stroke="#24232B" stroke-width="2.5" stroke-linecap="round" stroke-linejoin="round"/>
<path d="M40.8195 155.114C41.5198 157.861 47.844 159.542 50.52 157.589" stroke="#24232B" stroke-width="2.5" stroke-linecap="round" stroke-linejoin="round"/>
<path d="M79.0884 159.793C81.3776 157.276 83.7087 154.79 86.1338 152.409" stroke="#24232B" stroke-width="2.5" stroke-linecap="round" stroke-linejoin="round"/>
<path d="M177.316 214.996C167.794 220.792 155.48 223.945 144.609 220.353" stroke="#24232B" stroke-width="2.5" stroke-linecap="round" stroke-linejoin="round"/>
<path d="M188.992 241.146C188.992 241.146 189.358 255.025 196.707 258.993L204.066 262.961" stroke="#24232B" stroke-width="2.5" stroke-linecap="round" stroke-linejoin="round"/>
<path d="M191.648 253.051C191.648 253.051 185.031 268.162 149.762 272.465C126.932 275.253 111.702 280.506 108.294 288.61C104.887 296.714 102.378 313.413 96.106 327.95C89.2627 343.838 85.4647 353.17 84.7121 355.948C81.7225 366.987 82.3497 387.435 82.3497 387.435" stroke="#24232B" stroke-width="2.5" stroke-linecap="round" stroke-linejoin="round"/>
<path d="M72.9628 178.068L86.9909 189.013" stroke="#24232B" stroke-width="2.5" stroke-linecap="round" stroke-linejoin="round"/>
<path d="M119.343 126.729C119.343 126.729 120.274 123.46 127.476 121.904" stroke="#24232B" stroke-width="2.5" stroke-linecap="round" stroke-linejoin="round"/>
<path d="M114.294 156.534C114.922 158.612 115.329 165.129 116.228 170.716" stroke="#24232B" stroke-width="2.5" stroke-linecap="round" stroke-linejoin="round"/>
<path d="M193.017 157.714C192.452 159.27 200.292 178.632 202.498 180.491" stroke="#24232B" stroke-width="2.5" stroke-linecap="round" stroke-linejoin="round"/>
<path d="M28.2757 130.604C28.2757 132.045 28.098 138.363 28.0353 139.794" stroke="#24232B" stroke-width="2.5" stroke-linecap="round" stroke-linejoin="round"/>
<path d="M18.2407 148.681C16.7982 148.66 10.589 148.712 9.14648 148.681" stroke="#24232B" stroke-width="2.5" stroke-linecap="round" stroke-linejoin="round"/>
<path d="M22.0979 142.728C21.178 141.746 14.279 133.841 13.3486 132.87" stroke="#24232B" stroke-width="2.5" stroke-linecap="round" stroke-linejoin="round"/>
<path d="M49.6837 3.77002H122.573C125.971 3.77002 128.72 6.5166 128.72 9.91066V61.8242C128.72 65.2182 125.971 67.9648 122.573 67.9648H96.6391L98.6565 82.1259C98.8447 83.4208 97.4126 84.3294 96.315 83.6088L72.461 67.9648H49.6837C46.2864 67.9648 43.5372 65.2182 43.5372 61.8242V9.91066C43.5372 6.5166 46.2864 3.77002 49.6837 3.77002Z" fill="white" stroke="#24232B" stroke-width="2.5" stroke-linecap="round" stroke-linejoin="round"/>
<path d="M121.434 26.8391V52.7176C121.434 54.2005 120.232 55.4015 118.747 55.4015H88.2452L89.8864 49.971L96.0119 29.5753L97.653 24.1448H118.747C120.232 24.1448 121.434 25.3458 121.434 26.8287V26.8391Z" fill="white" stroke="#24232B" stroke-width="2.5" stroke-linecap="round" stroke-linejoin="round"/>
<path d="M116.751 33.3243V44.8328C116.385 44.6762 115.977 44.5926 115.507 44.5926C112.423 44.5926 111.723 48.3 113.416 49.9709H89.8864L96.0119 29.5752H112.361C111.807 31.3714 112.737 33.7212 115.193 33.7212C115.821 33.7212 116.322 33.5645 116.751 33.3243Z" fill="#B5B5BA" stroke="#24232B" stroke-width="2.5" stroke-linecap="round" stroke-linejoin="round"/>
<path d="M103.988 46.4202V44.8851C102.911 44.8329 101.855 44.5509 101.249 44.1958L101.73 42.3056C102.409 42.6711 103.36 43.0157 104.406 43.0157C105.326 43.0157 105.953 42.6607 105.953 42.0132C105.953 41.3657 105.441 41.0106 104.238 40.6138C102.514 40.029 101.333 39.2248 101.333 37.6688C101.333 36.2485 102.336 35.1415 104.061 34.7969V33.2617H105.639V34.682C106.716 34.7342 107.448 34.9535 107.981 35.2146L107.51 37.0317C107.092 36.8542 106.35 36.4887 105.19 36.4887C104.144 36.4887 103.799 36.9377 103.799 37.3868C103.799 37.9194 104.364 38.2536 105.733 38.7758C107.657 39.4546 108.43 40.3423 108.43 41.7939C108.43 43.2455 107.416 44.4569 105.556 44.7806V46.4202H103.977H103.988Z" fill="#24232B"/>
<path d="M60.7849 21.6699H93.0119C94.8203 21.6699 96.2942 23.132 96.2942 24.9491V54.6184C96.2942 56.4251 94.8307 57.8976 93.0119 57.8976H60.7849C57.9626 57.8976 55.6733 55.6105 55.6733 52.7909V26.7767C55.6733 23.957 57.9626 21.6699 60.7849 21.6699Z" fill="#B5B5BA" stroke="#24232B" stroke-width="2.5" stroke-linecap="round" stroke-linejoin="round"/>
<path d="M92.1547 12.7722H62.5201C58.7361 12.7722 55.6628 15.8425 55.6628 19.623V26.7766" stroke="#24232B" stroke-width="2.5" stroke-linecap="round" stroke-linejoin="round"/>
<path d="M88.2452 40.1962C88.2452 41.8985 86.8654 43.277 85.1616 43.277C83.4577 43.277 82.0779 41.8985 82.0779 40.1962C82.0779 38.494 83.4577 37.1155 85.1616 37.1155C86.8654 37.1155 88.2452 38.494 88.2452 40.1962Z" fill="#24232B"/>
</g>
<defs>
<clipPath id="clip0_36_1246">
<rect width="463" height="413" fill="white"/>
</clipPath>
</defs>
</svg>
